<?xml version="1.0" encoding="UTF-8"?>
<svg xmlns="http://www.w3.org/2000/svg" xmlns:xlink="http://www.w3.org/1999/xlink" width="153px" height="150px" viewBox="0 0 188 185" version="1.1">
<defs>
<filter id="alpha" filterUnits="objectBoundingBox" x="0%" y="0%" width="100%" height="100%">
  <feColorMatrix type="matrix" in="SourceGraphic" values="0 0 0 0 1 0 0 0 0 1 0 0 0 0 1 0 0 0 1 0"/>
</filter>
<mask id="mask0">
  <g filter="url(#alpha)">
<rect x="0" y="0" width="188" height="185" style="fill:rgb(0%,0%,0%);fill-opacity:0.4;stroke:none;"/>
  </g>
</mask>
<clipPath id="clip1">
  <rect x="0" y="0" width="188" height="185"/>
</clipPath>
<g id="surface5" clip-path="url(#clip1)">
<path style=" stroke:none;fill-rule:nonzero;fill:rgb(97.254902%,66.666667%,0%);fill-opacity:1;" d="M 83.527344 140.222656 L 83.421875 140.199219 C 83.4375 140.230469 83.449219 140.265625 83.460938 140.304688 C 82.699219 140.195312 80.902344 141.539062 81.363281 142.726562 C 81.371094 142.738281 81.371094 142.746094 81.378906 142.757812 C 81.519531 143.121094 81.972656 143.054688 82.253906 142.898438 C 82.300781 142.867188 82.355469 142.835938 82.402344 142.804688 C 82.824219 142.5625 84.78125 140.503906 83.527344 140.222656 Z M 83.527344 140.222656 "/>
</g>
<mask id="mask1">
  <g filter="url(#alpha)">
<rect x="0" y="0" width="188" height="185" style="fill:rgb(0%,0%,0%);fill-opacity:0.4;stroke:none;"/>
  </g>
</mask>
<clipPath id="clip2">
  <rect x="0" y="0" width="188" height="185"/>
</clipPath>
<g id="surface8" clip-path="url(#clip2)">
<path style=" stroke:none;fill-rule:nonzero;fill:rgb(97.254902%,66.666667%,0%);fill-opacity:1;" d="M 94.929688 140.460938 C 94.320312 139.59375 92.570312 141.824219 93.261719 142.296875 C 93.320312 142.335938 93.378906 142.375 93.429688 142.414062 C 93.589844 142.527344 93.8125 142.476562 93.96875 142.386719 C 94.558594 142.0625 95.425781 141.179688 94.929688 140.460938 Z M 94.929688 140.460938 "/>
</g>
<mask id="mask2">
  <g filter="url(#alpha)">
<rect x="0" y="0" width="188" height="185" style="fill:rgb(0%,0%,0%);fill-opacity:0.4;stroke:none;"/>
  </g>
</mask>
<clipPath id="clip3">
  <rect x="0" y="0" width="188" height="185"/>
</clipPath>
<g id="surface11" clip-path="url(#clip3)">
<path style=" stroke:none;fill-rule:nonzero;fill:rgb(97.254902%,66.666667%,0%);fill-opacity:1;" d="M 114.863281 118.429688 C 113.84375 118.429688 112.335938 121.027344 113.28125 121.027344 C 114.304688 121.027344 115.808594 118.429688 114.863281 118.429688 Z M 114.863281 118.429688 "/>
</g>
<mask id="mask3">
  <g filter="url(#alpha)">
<rect x="0" y="0" width="188" height="185" style="fill:rgb(0%,0%,0%);fill-opacity:0.4;stroke:none;"/>
  </g>
</mask>
<clipPath id="clip4">
  <rect x="0" y="0" width="188" height="185"/>
</clipPath>
<g id="surface14" clip-path="url(#clip4)">
<path style=" stroke:none;fill-rule:nonzero;fill:rgb(97.254902%,66.666667%,0%);fill-opacity:1;" d="M 125.585938 124.332031 C 124.789062 124.332031 123.621094 126.363281 124.351562 126.363281 C 125.15625 126.363281 126.320312 124.332031 125.585938 124.332031 Z M 125.585938 124.332031 "/>
</g>
<mask id="mask4">
  <g filter="url(#alpha)">
<rect x="0" y="0" width="188" height="185" style="fill:rgb(0%,0%,0%);fill-opacity:0.4;stroke:none;"/>
  </g>
</mask>
<clipPath id="clip5">
  <rect x="0" y="0" width="188" height="185"/>
</clipPath>
<g id="surface17" clip-path="url(#clip5)">
<path style=" stroke:none;fill-rule:nonzero;fill:rgb(97.254902%,66.666667%,0%);fill-opacity:1;" d="M 135.183594 111.921875 C 134.160156 111.921875 132.65625 114.523438 133.605469 114.523438 C 134.628906 114.523438 136.132812 111.921875 135.183594 111.921875 Z M 135.183594 111.921875 "/>
</g>
<mask id="mask5">
  <g filter="url(#alpha)">
<rect x="0" y="0" width="188" height="185" style="fill:rgb(0%,0%,0%);fill-opacity:0.4;stroke:none;"/>
  </g>
</mask>
<clipPath id="clip6">
  <rect x="0" y="0" width="188" height="185"/>
</clipPath>
<g id="surface20" clip-path="url(#clip6)">
<path style=" stroke:none;fill-rule:nonzero;fill:rgb(97.254902%,66.666667%,0%);fill-opacity:1;" d="M 140.109375 115.183594 L 140.109375 115.328125 C 140.101562 115.476562 140.148438 115.601562 140.25 115.699219 C 140.28125 115.710938 140.308594 115.726562 140.339844 115.742188 C 141.046875 116.070312 141.742188 115.023438 142 114.511719 C 142.152344 114.222656 142.222656 113.957031 142.222656 113.632812 C 142.226562 112.398438 140.109375 114.308594 140.109375 115.183594 Z M 140.109375 115.183594 "/>
</g>
<mask id="mask6">
  <g filter="url(#alpha)">
<rect x="0" y="0" width="188" height="185" style="fill:rgb(0%,0%,0%);fill-opacity:0.4;stroke:none;"/>
  </g>
</mask>
<clipPath id="clip7">
  <rect x="0" y="0" width="188" height="185"/>
</clipPath>
<g id="surface23" clip-path="url(#clip7)">
<path style=" stroke:none;fill-rule:nonzero;fill:rgb(97.254902%,66.666667%,0%);fill-opacity:1;" d="M 143.84375 117.925781 C 143.75 117.832031 143.667969 117.75 143.582031 117.664062 C 142.925781 117 140.964844 119.28125 141.699219 120.019531 C 141.785156 120.109375 141.871094 120.195312 141.957031 120.28125 C 142.609375 120.9375 144.570312 118.660156 143.84375 117.925781 Z M 143.84375 117.925781 "/>
</g>
<mask id="mask7">
  <g filter="url(#alpha)">
<rect x="0" y="0" width="188" height="185" style="fill:rgb(0%,0%,0%);fill-opacity:0.4;stroke:none;"/>
  </g>
</mask>
<clipPath id="clip8">
  <rect x="0" y="0" width="188" height="185"/>
</clipPath>
<g id="surface26" clip-path="url(#clip8)">
<path style=" stroke:none;fill-rule:nonzero;fill:rgb(97.254902%,66.666667%,0%);fill-opacity:1;" d="M 146.117188 99.339844 C 145.425781 99.339844 144.417969 101.089844 145.050781 101.089844 C 145.742188 101.089844 146.75 99.339844 146.117188 99.339844 Z M 146.117188 99.339844 "/>
</g>
<mask id="mask8">
  <g filter="url(#alpha)">
<rect x="0" y="0" width="188" height="185" style="fill:rgb(0%,0%,0%);fill-opacity:0.4;stroke:none;"/>
  </g>
</mask>
<clipPath id="clip9">
  <rect x="0" y="0" width="188" height="185"/>
</clipPath>
<g id="surface29" clip-path="url(#clip9)">
<path style=" stroke:none;fill-rule:nonzero;fill:rgb(97.254902%,66.666667%,0%);fill-opacity:1;" d="M 64.867188 107.613281 C 64.882812 107.679688 64.902344 107.746094 64.921875 107.8125 C 65.097656 108.386719 65.988281 107.222656 66.039062 107 C 66.054688 106.902344 66.074219 106.804688 66.097656 106.710938 C 66.289062 105.808594 64.613281 106.792969 64.867188 107.613281 Z M 64.867188 107.613281 "/>
</g>
<mask id="mask9">
  <g filter="url(#alpha)">
<rect x="0" y="0" width="188" height="185" style="fill:rgb(0%,0%,0%);fill-opacity:0.4;stroke:none;"/>
  </g>
</mask>
<clipPath id="clip10">
  <rect x="0" y="0" width="188" height="185"/>
</clipPath>
<g id="surface32" clip-path="url(#clip10)">
<path style=" stroke:none;fill-rule:nonzero;fill:rgb(97.254902%,66.666667%,0%);fill-opacity:1;" d="M 62.015625 117.136719 C 61.644531 116.664062 60.109375 118.296875 60.703125 118.777344 C 60.914062 118.949219 60.949219 118.957031 61.226562 118.953125 C 61.707031 118.941406 62.285156 118.289062 62.261719 117.804688 C 62.242188 117.480469 62.214844 117.386719 62.015625 117.136719 Z M 62.015625 117.136719 "/>
</g>
<mask id="mask10">
  <g filter="url(#alpha)">
<rect x="0" y="0" width="188" height="185" style="fill:rgb(0%,0%,0%);fill-opacity:0.4;stroke:none;"/>
  </g>
</mask>
<clipPath id="clip11">
  <rect x="0" y="0" width="188" height="185"/>
</clipPath>
<g id="surface35" clip-path="url(#clip11)">
<path style=" stroke:none;fill-rule:nonzero;fill:rgb(97.254902%,66.666667%,0%);fill-opacity:1;" d="M 51.683594 118.644531 C 51.410156 118.75 51.175781 118.691406 50.992188 118.476562 C 50.535156 118.171875 49.671875 119.289062 49.871094 119.707031 C 50.160156 120.316406 50.367188 120.390625 51.003906 120.21875 C 51.5625 120.066406 52.414062 118.433594 51.683594 118.644531 Z M 51.683594 118.644531 "/>
</g>
<mask id="mask11">
  <g filter="url(#alpha)">
<rect x="0" y="0" width="188" height="185" style="fill:rgb(0%,0%,0%);fill-opacity:0.4;stroke:none;"/>
  </g>
</mask>
<clipPath id="clip12">
  <rect x="0" y="0" width="188" height="185"/>
</clipPath>
<g id="surface38" clip-path="url(#clip12)">
<path style=" stroke:none;fill-rule:nonzero;fill:rgb(97.254902%,66.666667%,0%);fill-opacity:1;" d="M 53.523438 109.414062 C 53.460938 109.378906 53.402344 109.347656 53.339844 109.3125 C 52.539062 108.863281 51.933594 110.867188 52.515625 110.664062 C 52.617188 110.628906 52.714844 110.59375 52.820312 110.5625 C 53.035156 110.484375 53.964844 109.65625 53.523438 109.414062 Z M 53.523438 109.414062 "/>
</g>
<mask id="mask12">
  <g filter="url(#alpha)">
<rect x="0" y="0" width="188" height="185" style="fill:rgb(0%,0%,0%);fill-opacity:0.4;stroke:none;"/>
  </g>
</mask>
<clipPath id="clip13">
  <rect x="0" y="0" width="188" height="185"/>
</clipPath>
<g id="surface41" clip-path="url(#clip13)">
<path style=" stroke:none;fill-rule:nonzero;fill:rgb(97.254902%,66.666667%,0%);fill-opacity:1;" d="M 94.585938 51.132812 C 93.890625 51.132812 92.867188 52.90625 93.511719 52.90625 C 94.207031 52.902344 95.230469 51.132812 94.585938 51.132812 Z M 94.585938 51.132812 "/>
</g>
<mask id="mask13">
  <g filter="url(#alpha)">
<rect x="0" y="0" width="188" height="185" style="fill:rgb(0%,0%,0%);fill-opacity:0.4;stroke:none;"/>
  </g>
</mask>
<clipPath id="clip14">
  <rect x="0" y="0" width="188" height="185"/>
</clipPath>
<g id="surface44" clip-path="url(#clip14)">
<path style=" stroke:none;fill-rule:nonzero;fill:rgb(97.254902%,66.666667%,0%);fill-opacity:1;" d="M 100.324219 58.476562 C 100.246094 58.382812 100.164062 58.289062 100.082031 58.199219 C 99.632812 57.675781 97.984375 59.480469 98.617188 60.035156 C 98.703125 60.117188 98.800781 60.195312 98.890625 60.273438 C 99.449219 60.769531 100.820312 59.050781 100.324219 58.476562 Z M 100.324219 58.476562 "/>
</g>
<mask id="mask14">
  <g filter="url(#alpha)">
<rect x="0" y="0" width="188" height="185" style="fill:rgb(0%,0%,0%);fill-opacity:0.4;stroke:none;"/>
  </g>
</mask>
<clipPath id="clip15">
  <rect x="0" y="0" width="188" height="185"/>
</clipPath>
<g id="surface47" clip-path="url(#clip15)">
<path style=" stroke:none;fill-rule:nonzero;fill:rgb(97.254902%,66.666667%,0%);fill-opacity:1;" d="M 101.789062 64.726562 C 101.804688 64.804688 101.8125 64.882812 101.824219 64.957031 C 101.984375 65.988281 103.292969 64.320312 103.351562 63.84375 C 103.363281 63.746094 103.375 63.65625 103.386719 63.558594 C 103.484375 62.804688 101.65625 63.878906 101.789062 64.726562 Z M 101.789062 64.726562 "/>
</g>
<mask id="mask15">
  <g filter="url(#alpha)">
<rect x="0" y="0" width="188" height="185" style="fill:rgb(0%,0%,0%);fill-opacity:0.4;stroke:none;"/>
  </g>
</mask>
<clipPath id="clip16">
  <rect x="0" y="0" width="188" height="185"/>
</clipPath>
<g id="surface50" clip-path="url(#clip16)">
<path style=" stroke:none;fill-rule:nonzero;fill:rgb(97.254902%,66.666667%,0%);fill-opacity:1;" d="M 128.289062 52.097656 C 128.261719 52.085938 128.230469 52.074219 128.203125 52.058594 C 127.265625 51.679688 125.820312 53.875 126.117188 54.667969 C 126.601562 55.957031 128.53125 53.226562 128.574219 52.585938 C 128.574219 52.558594 128.574219 52.53125 128.582031 52.5 C 128.59375 52.273438 128.484375 52.175781 128.289062 52.097656 Z M 128.289062 52.097656 "/>
</g>
<mask id="mask16">
  <g filter="url(#alpha)">
<rect x="0" y="0" width="188" height="185" style="fill:rgb(0%,0%,0%);fill-opacity:0.4;stroke:none;"/>
  </g>
</mask>
<clipPath id="clip17">
  <rect x="0" y="0" width="188" height="185"/>
</clipPath>
<g id="surface53" clip-path="url(#clip17)">
<path style=" stroke:none;fill-rule:nonzero;fill:rgb(97.254902%,66.666667%,0%);fill-opacity:1;" d="M 141.019531 57.902344 C 140.453125 57.40625 138.964844 59.207031 139.550781 59.738281 C 139.960938 60.117188 140.382812 60.464844 140.765625 60.867188 C 141.261719 61.382812 142.453125 59.777344 142.230469 59.253906 C 141.964844 58.613281 141.535156 58.355469 141.019531 57.902344 Z M 141.019531 57.902344 "/>
</g>
<mask id="mask17">
  <g filter="url(#alpha)">
<rect x="0" y="0" width="188" height="185" style="fill:rgb(0%,0%,0%);fill-opacity:0.4;stroke:none;"/>
  </g>
</mask>
<clipPath id="clip18">
  <rect x="0" y="0" width="188" height="185"/>
</clipPath>
<g id="surface56" clip-path="url(#clip18)">
<path style=" stroke:none;fill-rule:nonzero;fill:rgb(97.254902%,66.666667%,0%);fill-opacity:1;" d="M 145.90625 67.179688 C 145.859375 67.128906 145.808594 67.074219 145.765625 67.023438 C 145.261719 66.480469 143.597656 68.359375 144.230469 68.945312 C 144.277344 68.996094 144.328125 69.039062 144.382812 69.085938 C 144.59375 69.289062 144.964844 69.035156 145.140625 68.925781 C 145.515625 68.675781 145.726562 68.367188 145.910156 67.960938 C 146.023438 67.71875 146.109375 67.394531 145.90625 67.179688 Z M 145.90625 67.179688 "/>
</g>
<mask id="mask18">
  <g filter="url(#alpha)">
<rect x="0" y="0" width="188" height="185" style="fill:rgb(0%,0%,0%);fill-opacity:0.4;stroke:none;"/>
  </g>
</mask>
<clipPath id="clip19">
  <rect x="0" y="0" width="188" height="185"/>
</clipPath>
<g id="surface59" clip-path="url(#clip19)">
<path style=" stroke:none;fill-rule:nonzero;fill:rgb(97.254902%,66.666667%,0%);fill-opacity:1;" d="M 148.015625 73.628906 C 147.945312 73.609375 147.871094 73.589844 147.800781 73.566406 C 146.605469 73.234375 145.402344 76.234375 146.535156 75.992188 C 146.628906 75.972656 146.726562 75.953125 146.816406 75.933594 C 147.390625 75.808594 149.082031 73.925781 148.015625 73.628906 Z M 148.015625 73.628906 "/>
</g>
<mask id="mask19">
  <g filter="url(#alpha)">
<rect x="0" y="0" width="188" height="185" style="fill:rgb(0%,0%,0%);fill-opacity:0.4;stroke:none;"/>
  </g>
</mask>
<clipPath id="clip20">
  <rect x="0" y="0" width="188" height="185"/>
</clipPath>
<g id="surface62" clip-path="url(#clip20)">
<path style=" stroke:none;fill-rule:nonzero;fill:rgb(97.254902%,66.666667%,0%);fill-opacity:1;" d="M 139.46875 79.511719 C 139.007812 79.144531 138.417969 79.707031 138.011719 80.25 C 137.984375 80.269531 137.957031 80.28125 137.929688 80.300781 C 137.554688 80.542969 136.878906 81.375 137.257812 81.839844 C 137.316406 81.917969 137.378906 81.996094 137.441406 82.074219 C 137.710938 82.40625 138.429688 81.832031 138.59375 81.65625 L 138.792969 81.445312 C 139.101562 81.121094 140.046875 79.980469 139.46875 79.511719 Z M 139.46875 79.511719 "/>
</g>
<mask id="mask20">
  <g filter="url(#alpha)">
<rect x="0" y="0" width="188" height="185" style="fill:rgb(0%,0%,0%);fill-opacity:0.4;stroke:none;"/>
  </g>
</mask>
<clipPath id="clip21">
  <rect x="0" y="0" width="188" height="185"/>
</clipPath>
<g id="surface65" clip-path="url(#clip21)">
<path style=" stroke:none;fill-rule:nonzero;fill:rgb(97.254902%,66.666667%,0%);fill-opacity:1;" d="M 160.390625 90.242188 C 158.3125 55.273438 126.550781 28.707031 89.34375 30.84375 C 52.109375 33.007812 23.566406 63.140625 25.574219 98.089844 C 27.585938 133.046875 59.414062 159.589844 96.640625 157.417969 C 133.8125 155.261719 162.375 125.21875 160.390625 90.242188 Z M 138.453125 112.882812 C 129.136719 139.835938 98.453125 158.476562 70.726562 147.515625 C 62.480469 144.253906 46.234375 134.5625 44.976562 124.027344 C 43.285156 118.316406 44.921875 112.492188 50.980469 106.648438 C 60.753906 97.222656 70.257812 87.398438 76.78125 75.691406 C 78.941406 69.8125 80.960938 63.886719 83.207031 58.003906 C 87.625 44.914062 97.566406 35.144531 113.324219 41.523438 C 138.109375 51.554688 146.433594 89.8125 138.453125 112.882812 Z M 138.453125 112.882812 "/>
</g>
<mask id="mask21">
  <g filter="url(#alpha)">
<rect x="0" y="0" width="188" height="185" style="fill:rgb(0%,0%,0%);fill-opacity:0.4;stroke:none;"/>
  </g>
</mask>
<clipPath id="clip22">
  <rect x="0" y="0" width="188" height="185"/>
</clipPath>
<g id="surface68" clip-path="url(#clip22)">
<path style=" stroke:none;fill-rule:nonzero;fill:rgb(97.254902%,66.666667%,0%);fill-opacity:1;" d="M 38.746094 121.03125 C 40.285156 114.667969 44.429688 111.628906 48.617188 106.941406 C 62.203125 91.765625 74.863281 74.410156 80.277344 54.40625 C 81.382812 50.3125 82.496094 45.191406 85.96875 42.332031 C 90.113281 38.929688 99.402344 36.902344 101.164062 31.195312 C 97.300781 30.777344 93.363281 30.613281 89.34375 30.84375 C 52.109375 33.007812 23.566406 63.140625 25.574219 98.089844 C 26.378906 112.070312 32.011719 124.65625 40.792969 134.648438 C 39.0625 130.464844 37.65625 125.503906 38.746094 121.03125 Z M 38.746094 121.03125 "/>
<path style=" stroke:none;fill-rule:nonzero;fill:rgb(97.254902%,66.666667%,0%);fill-opacity:1;" d="M 160.390625 90.242188 C 159.082031 68.214844 145.957031 49.585938 127.140625 39.316406 C 133.8125 45.261719 140.21875 51.84375 144.972656 59.476562 C 154.996094 75.558594 158.164062 93.738281 152.054688 112.03125 C 147.527344 125.59375 139.359375 138.132812 128.621094 147.71875 C 148.8125 135.75 161.746094 114.15625 160.390625 90.242188 Z M 160.390625 90.242188 "/>
</g>
<mask id="mask22">
  <g filter="url(#alpha)">
<rect x="0" y="0" width="188" height="185" style="fill:rgb(0%,0%,0%);fill-opacity:0.501961;stroke:none;"/>
  </g>
</mask>
<clipPath id="clip23">
  <rect x="0" y="0" width="188" height="185"/>
</clipPath>
<g id="surface71" clip-path="url(#clip23)">
<path style=" stroke:none;fill-rule:nonzero;fill:rgb(0%,51.764706%,21.960784%);fill-opacity:1;" d="M 75.394531 31.65625 C 70.078125 35.449219 64.0625 38.253906 58.597656 41.839844 C 48.933594 48.171875 38.746094 54.917969 32.347656 64.839844 C 21.027344 82.425781 18.777344 104.402344 26.742188 123.652344 C 29.988281 114.125 38.582031 109.476562 45.449219 102.734375 C 51.707031 96.585938 58.320312 90.195312 62.875 82.609375 C 67.980469 74.101562 72.019531 65.113281 75.671875 55.890625 C 78.679688 48.292969 81.113281 40.066406 84.96875 32.746094 C 85.59375 30.386719 86.292969 28.050781 87.03125 25.734375 C 83.511719 28.335938 79.546875 30.171875 75.394531 31.65625 Z M 75.394531 31.65625 "/>
</g>
<mask id="mask23">
  <g filter="url(#alpha)">
<rect x="0" y="0" width="188" height="185" style="fill:rgb(0%,0%,0%);fill-opacity:0.501961;stroke:none;"/>
  </g>
</mask>
<clipPath id="clip24">
  <rect x="0" y="0" width="188" height="185"/>
</clipPath>
<g id="surface74" clip-path="url(#clip24)">
<path style=" stroke:none;fill-rule:nonzero;fill:rgb(0%,51.764706%,21.960784%);fill-opacity:1;" d="M 70.46875 38.105469 C 60.746094 44.667969 50.820312 51.539062 42.9375 60.339844 C 29.113281 75.773438 23.234375 94.324219 25.839844 113.53125 C 25.597656 84.515625 42.628906 57.730469 68.691406 44.371094 C 69.878906 43.761719 71.320312 44.507812 71.34375 45.902344 C 71.53125 57.164062 66.792969 70.410156 62.160156 80.53125 C 60.539062 84.085938 58.710938 87.5 56.792969 90.84375 C 59.011719 88.230469 61.121094 85.527344 62.875 82.609375 C 67.980469 74.097656 72.019531 65.109375 75.671875 55.890625 C 78.679688 48.292969 81.113281 40.066406 84.96875 32.742188 C 85.519531 30.664062 86.144531 28.613281 86.78125 26.5625 C 82.296875 31.433594 75.949219 34.40625 70.46875 38.105469 Z M 70.46875 38.105469 "/>
</g>
<mask id="mask24">
  <g filter="url(#alpha)">
<rect x="0" y="0" width="188" height="185" style="fill:rgb(0%,0%,0%);fill-opacity:0.4;stroke:none;"/>
  </g>
</mask>
<clipPath id="clip25">
  <rect x="0" y="0" width="188" height="185"/>
</clipPath>
<g id="surface77" clip-path="url(#clip25)">
<path style=" stroke:none;fill-rule:nonzero;fill:rgb(100%,96.862745%,66.27451%);fill-opacity:1;" d="M 128.976562 64.398438 C 131.261719 68.351562 134.378906 72.988281 136.429688 77.8125 C 134.738281 63.269531 124.183594 43.804688 109.835938 43.425781 C 118.175781 48.035156 124.257812 56.21875 128.976562 64.398438 Z M 128.976562 64.398438 "/>
</g>
</defs>
<g id="surface1">
<path style=" stroke:none;fill-rule:nonzero;fill:rgb(100%,100%,100%);fill-opacity:1;" d="M 37.878906 146.722656 C 52.203125 167.507812 76.722656 180.371094 103.558594 180.375 C 105.183594 180.375 106.835938 180.328125 108.476562 180.234375 C 151.964844 177.707031 185.449219 142.070312 183.113281 100.757812 C 180.855469 62.738281 148.9375 32.960938 109.917969 30.480469 C 109.792969 29.9375 109.660156 29.390625 109.519531 28.835938 C 109.285156 27.933594 108.96875 26.699219 108.480469 25.304688 C 105.820312 17.589844 100.710938 15.894531 96.890625 15.835938 C 96.835938 15.835938 96.78125 15.835938 96.726562 15.835938 C 91.464844 15.835938 86.730469 18.492188 84.042969 22.976562 C 82.375 25.78125 81.734375 28.984375 82.128906 32.121094 C 79.253906 33.117188 76.164062 33.953125 73.011719 34.769531 C 59.394531 38.292969 43.90625 43.683594 32.277344 56.9375 C 22.308594 68.289062 16.683594 82.152344 16.003906 97.03125 C 15.347656 111.527344 19.441406 126.734375 27.867188 141.054688 C 29.957031 144.570312 33.804688 146.769531 37.878906 146.722656 Z M 37.878906 146.722656 "/>
<path style=" stroke:none;fill-rule:nonzero;fill:rgb(94.509804%,94.509804%,94.509804%);fill-opacity:1;" d="M 36.863281 145.703125 C 51.1875 166.488281 75.707031 179.355469 102.542969 179.355469 C 104.167969 179.355469 105.820312 179.308594 107.460938 179.214844 C 150.949219 176.6875 184.433594 141.050781 182.097656 99.742188 C 179.839844 61.71875 147.921875 31.941406 108.898438 29.460938 C 108.777344 28.917969 108.644531 28.371094 108.503906 27.816406 C 108.269531 26.914062 107.949219 25.679688 107.464844 24.285156 C 104.777344 16.578125 99.695312 14.875 95.875 14.816406 C 95.820312 14.816406 95.765625 14.816406 95.710938 14.816406 C 90.449219 14.816406 85.714844 17.472656 83.027344 21.957031 C 81.359375 24.761719 80.71875 27.964844 81.113281 31.101562 C 78.238281 32.097656 75.148438 32.933594 71.996094 33.75 C 58.378906 37.273438 42.890625 42.664062 31.261719 55.917969 C 21.292969 67.269531 15.664062 81.136719 14.988281 96.007812 C 14.332031 110.507812 18.390625 125.738281 26.851562 140.035156 C 28.9375 143.558594 32.789062 145.75 36.863281 145.703125 Z M 36.863281 145.703125 "/>
<path style=" stroke:none;fill-rule:nonzero;fill:rgb(88.627451%,88.627451%,88.627451%);fill-opacity:1;" d="M 35.847656 144.683594 C 50.171875 165.46875 74.691406 178.335938 101.527344 178.335938 C 103.152344 178.335938 104.804688 178.289062 106.445312 178.195312 C 149.933594 175.671875 183.417969 140.03125 181.085938 98.722656 C 178.824219 60.699219 146.910156 30.925781 107.886719 28.441406 C 107.761719 27.898438 107.628906 27.351562 107.488281 26.796875 C 107.257812 25.894531 106.933594 24.664062 106.449219 23.269531 C 103.761719 15.558594 98.679688 13.859375 94.859375 13.796875 C 94.804688 13.796875 94.75 13.796875 94.695312 13.796875 C 89.433594 13.796875 84.699219 16.453125 82.011719 20.9375 C 80.34375 23.746094 79.703125 26.945312 80.097656 30.085938 C 77.222656 31.078125 74.132812 31.914062 70.980469 32.730469 C 57.363281 36.257812 41.875 41.644531 30.246094 54.898438 C 20.277344 66.253906 14.652344 80.117188 13.972656 94.992188 C 13.316406 109.488281 17.375 124.71875 25.835938 139.015625 C 27.921875 142.539062 31.777344 144.730469 35.847656 144.683594 Z M 35.847656 144.683594 "/>
<path style=" stroke:none;fill-rule:nonzero;fill:rgb(83.137255%,83.137255%,83.137255%);fill-opacity:1;" d="M 34.832031 143.664062 C 49.160156 164.449219 73.679688 177.316406 100.511719 177.316406 C 102.136719 177.316406 103.789062 177.269531 105.429688 177.175781 C 148.921875 174.648438 182.402344 139.011719 180.070312 97.703125 C 177.808594 59.679688 145.894531 29.90625 106.871094 27.425781 C 106.746094 26.882812 106.617188 26.332031 106.472656 25.777344 C 106.242188 24.875 105.921875 23.644531 105.433594 22.25 C 102.75 14.542969 97.664062 12.839844 93.84375 12.777344 C 93.789062 12.777344 93.734375 12.777344 93.679688 12.777344 C 88.417969 12.777344 83.683594 15.433594 80.996094 19.917969 C 79.332031 22.726562 78.691406 25.925781 79.082031 29.066406 C 76.207031 30.0625 73.117188 30.894531 69.964844 31.710938 C 56.347656 35.238281 40.859375 40.625 29.230469 53.878906 C 19.261719 65.234375 13.636719 79.097656 12.960938 93.972656 C 12.300781 108.46875 16.359375 123.699219 24.820312 138 C 26.90625 141.519531 30.761719 143.710938 34.832031 143.664062 Z M 34.832031 143.664062 "/>
<path style=" stroke:none;fill-rule:nonzero;fill:rgb(77.254902%,77.254902%,77.254902%);fill-opacity:1;" d="M 33.820312 142.644531 C 48.144531 163.429688 72.664062 176.296875 99.496094 176.296875 C 101.121094 176.296875 102.777344 176.25 104.414062 176.15625 C 147.90625 173.632812 181.390625 137.992188 179.054688 96.683594 C 176.796875 58.660156 144.878906 28.886719 105.855469 26.40625 C 105.734375 25.863281 105.601562 25.3125 105.457031 24.757812 C 105.226562 23.855469 104.90625 22.625 104.417969 21.230469 C 101.734375 13.519531 96.652344 11.820312 92.828125 11.761719 C 92.773438 11.757812 92.71875 11.757812 92.664062 11.757812 C 87.402344 11.757812 82.667969 14.414062 79.984375 18.898438 C 78.316406 21.707031 77.675781 24.90625 78.070312 28.046875 C 75.195312 29.042969 72.105469 29.875 68.949219 30.691406 C 55.332031 34.214844 39.84375 39.605469 28.21875 52.859375 C 18.25 64.210938 12.621094 78.078125 11.945312 92.953125 C 11.285156 107.449219 15.347656 122.679688 23.808594 136.980469 C 25.890625 140.5 29.746094 142.691406 33.820312 142.644531 Z M 33.820312 142.644531 "/>
<path style=" stroke:none;fill-rule:nonzero;fill:rgb(71.764706%,71.764706%,71.764706%);fill-opacity:1;" d="M 32.804688 141.625 C 47.128906 162.410156 71.648438 175.277344 98.484375 175.28125 C 100.109375 175.28125 101.761719 175.234375 103.398438 175.136719 C 146.890625 172.613281 180.375 136.976562 178.039062 95.664062 C 175.78125 57.640625 143.863281 27.867188 104.839844 25.386719 C 104.71875 24.84375 104.585938 24.296875 104.441406 23.742188 C 104.210938 22.835938 103.890625 21.605469 103.402344 20.210938 C 100.71875 12.503906 95.636719 10.800781 91.8125 10.742188 C 91.761719 10.738281 91.707031 10.738281 91.648438 10.738281 C 86.386719 10.738281 81.652344 13.398438 78.96875 17.878906 C 77.300781 20.6875 76.660156 23.886719 77.054688 27.027344 C 74.179688 28.023438 71.089844 28.855469 67.933594 29.671875 C 54.316406 33.199219 38.832031 38.585938 27.203125 51.839844 C 17.234375 63.195312 11.605469 77.058594 10.929688 91.933594 C 10.269531 106.429688 14.332031 121.660156 22.792969 135.957031 C 24.875 139.480469 28.730469 141.671875 32.804688 141.625 Z M 32.804688 141.625 "/>
<path style=" stroke:none;fill-rule:nonzero;fill:rgb(65.882353%,65.882353%,65.882353%);fill-opacity:1;" d="M 31.789062 140.609375 C 46.113281 161.390625 70.632812 174.257812 97.46875 174.261719 C 99.09375 174.261719 100.746094 174.214844 102.382812 174.117188 C 145.875 171.59375 179.359375 135.957031 177.023438 94.644531 C 174.765625 56.625 142.847656 26.847656 103.824219 24.367188 C 103.703125 23.824219 103.570312 23.277344 103.429688 22.722656 C 103.195312 21.820312 102.875 20.585938 102.390625 19.191406 C 99.703125 11.484375 94.621094 9.78125 90.800781 9.722656 C 90.742188 9.722656 90.6875 9.722656 90.632812 9.722656 C 85.371094 9.722656 80.640625 12.378906 77.953125 16.863281 C 76.285156 19.667969 75.644531 22.871094 76.039062 26.007812 C 73.164062 27.003906 70.074219 27.839844 66.917969 28.65625 C 53.304688 32.179688 37.816406 37.570312 26.1875 50.824219 C 16.21875 62.175781 10.589844 76.039062 9.914062 90.914062 C 9.253906 105.414062 13.316406 120.644531 21.777344 134.941406 C 23.859375 138.460938 27.714844 140.652344 31.789062 140.609375 Z M 31.789062 140.609375 "/>
<path style=" stroke:none;fill-rule:nonzero;fill:rgb(60.392157%,60.392157%,60.392157%);fill-opacity:1;" d="M 30.773438 139.589844 C 45.097656 160.371094 69.617188 173.238281 96.453125 173.242188 C 98.078125 173.242188 99.730469 173.195312 101.371094 173.101562 C 144.859375 170.574219 178.34375 134.9375 176.007812 93.625 C 173.75 55.605469 141.832031 25.828125 102.808594 23.347656 C 102.6875 22.804688 102.554688 22.257812 102.410156 21.703125 C 102.179688 20.800781 101.859375 19.566406 101.371094 18.171875 C 98.6875 10.464844 93.605469 8.761719 89.785156 8.703125 C 89.730469 8.703125 89.675781 8.703125 89.617188 8.703125 C 84.355469 8.703125 79.625 11.359375 76.9375 15.84375 C 75.269531 18.648438 74.628906 21.851562 75.023438 24.988281 C 72.148438 25.984375 69.058594 26.820312 65.902344 27.636719 C 52.289062 31.160156 36.800781 36.550781 25.171875 49.800781 C 15.203125 61.15625 9.574219 75.019531 8.898438 89.894531 C 8.238281 104.394531 12.300781 119.621094 20.761719 133.921875 C 22.84375 137.441406 26.699219 139.632812 30.773438 139.589844 Z M 30.773438 139.589844 "/>
<path style=" stroke:none;fill-rule:nonzero;fill:rgb(54.509804%,54.509804%,54.509804%);fill-opacity:1;" d="M 29.757812 138.570312 C 44.082031 159.355469 68.601562 172.222656 95.4375 172.222656 C 97.0625 172.222656 98.714844 172.175781 100.355469 172.082031 C 143.847656 169.554688 177.328125 133.917969 174.992188 92.609375 C 172.734375 54.585938 140.820312 24.808594 101.796875 22.328125 C 101.671875 21.785156 101.539062 21.238281 101.398438 20.683594 C 101.167969 19.78125 100.847656 18.550781 100.359375 17.15625 C 97.675781 9.445312 92.59375 7.742188 88.769531 7.683594 C 88.714844 7.683594 88.660156 7.683594 88.605469 7.683594 C 83.34375 7.683594 78.609375 10.339844 75.921875 14.824219 C 74.253906 17.632812 73.613281 20.832031 74.007812 23.96875 C 71.132812 24.964844 68.046875 25.800781 64.890625 26.617188 C 51.273438 30.140625 35.785156 35.53125 24.15625 48.785156 C 14.1875 60.136719 8.5625 74 7.882812 88.875 C 7.226562 103.375 11.285156 118.601562 19.746094 132.902344 C 21.832031 136.421875 25.683594 138.617188 29.757812 138.570312 Z M 29.757812 138.570312 "/>
<path style=" stroke:none;fill-rule:nonzero;fill:rgb(49.019608%,49.019608%,49.019608%);fill-opacity:1;" d="M 28.742188 137.550781 C 43.070312 158.335938 67.589844 171.203125 94.421875 171.203125 C 96.046875 171.203125 97.699219 171.15625 99.339844 171.0625 C 142.832031 168.535156 176.3125 132.898438 173.980469 91.589844 C 171.71875 53.566406 139.804688 23.789062 100.78125 21.308594 C 100.65625 20.765625 100.523438 20.21875 100.382812 19.664062 C 100.152344 18.761719 99.828125 17.53125 99.34375 16.132812 C 96.65625 8.425781 91.574219 6.722656 87.753906 6.664062 C 87.699219 6.664062 87.644531 6.664062 87.589844 6.664062 C 82.328125 6.664062 77.59375 9.320312 74.90625 13.804688 C 73.238281 16.609375 72.597656 19.8125 72.992188 22.949219 C 70.117188 23.945312 67.027344 24.78125 63.875 25.597656 C 50.257812 29.121094 34.769531 34.511719 23.140625 47.765625 C 13.171875 59.117188 7.546875 72.980469 6.867188 87.855469 C 6.210938 102.355469 10.269531 117.582031 18.730469 131.882812 C 20.816406 135.402344 24.667969 137.597656 28.742188 137.550781 Z M 28.742188 137.550781 "/>
<path style=" stroke:none;fill-rule:nonzero;fill:rgb(43.137255%,43.137255%,43.137255%);fill-opacity:1;" d="M 27.730469 136.53125 C 42.054688 157.316406 66.574219 170.183594 93.40625 170.183594 C 95.03125 170.183594 96.683594 170.136719 98.324219 170.042969 C 141.816406 167.515625 175.300781 131.878906 172.964844 90.570312 C 170.707031 52.546875 138.789062 22.769531 99.765625 20.289062 C 99.640625 19.746094 99.507812 19.199219 99.367188 18.644531 C 99.136719 17.742188 98.8125 16.511719 98.328125 15.117188 C 95.644531 7.40625 90.5625 5.703125 86.738281 5.644531 C 86.683594 5.644531 86.628906 5.644531 86.574219 5.644531 C 81.3125 5.644531 76.578125 8.300781 73.894531 12.785156 C 72.226562 15.589844 71.585938 18.792969 71.980469 21.929688 C 69.105469 22.925781 66.015625 23.761719 62.859375 24.578125 C 49.246094 28.101562 33.757812 33.492188 22.128906 46.746094 C 12.15625 58.097656 6.53125 71.960938 5.855469 86.835938 C 5.195312 101.335938 9.257812 116.5625 17.714844 130.863281 C 19.800781 134.386719 23.65625 136.578125 27.730469 136.53125 Z M 27.730469 136.53125 "/>
<path style=" stroke:none;fill-rule:nonzero;fill:rgb(37.647059%,37.647059%,37.647059%);fill-opacity:1;" d="M 26.714844 135.511719 C 41.039062 156.296875 65.558594 169.164062 92.390625 169.164062 C 94.015625 169.164062 95.671875 169.117188 97.308594 169.023438 C 140.800781 166.5 174.285156 130.859375 171.949219 89.550781 C 169.691406 51.527344 137.773438 21.753906 98.75 19.273438 C 98.628906 18.726562 98.496094 18.179688 98.351562 17.625 C 98.121094 16.722656 97.804688 15.488281 97.3125 14.097656 C 94.652344 6.378906 89.546875 4.683594 85.722656 4.625 C 85.667969 4.625 85.613281 4.625 85.558594 4.625 C 80.296875 4.625 75.5625 7.28125 72.878906 11.765625 C 71.210938 14.574219 70.570312 17.773438 70.964844 20.914062 C 68.089844 21.90625 65 22.742188 61.84375 23.558594 C 48.230469 27.082031 32.742188 32.472656 21.113281 45.726562 C 11.144531 57.078125 5.515625 70.945312 4.839844 85.820312 C 4.179688 100.316406 8.273438 115.527344 16.703125 129.84375 C 18.792969 133.359375 22.640625 135.558594 26.714844 135.511719 Z M 26.714844 135.511719 "/>
<path style=" stroke:none;fill-rule:nonzero;fill:rgb(100%,100%,100%);fill-opacity:1;" d="M 26.714844 135.511719 C 41.039062 156.296875 65.558594 169.164062 92.390625 169.164062 C 94.015625 169.164062 95.671875 169.117188 97.308594 169.023438 C 140.800781 166.5 174.285156 130.859375 171.949219 89.550781 C 169.691406 51.527344 137.773438 21.753906 98.75 19.273438 C 98.628906 18.726562 98.496094 18.179688 98.351562 17.625 C 98.121094 16.722656 97.804688 15.488281 97.3125 14.097656 C 94.652344 6.378906 89.546875 4.683594 85.722656 4.625 C 85.667969 4.625 85.613281 4.625 85.558594 4.625 C 80.296875 4.625 75.5625 7.28125 72.878906 11.765625 C 71.210938 14.574219 70.570312 17.773438 70.964844 20.914062 C 68.089844 21.90625 65 22.742188 61.84375 23.558594 C 48.230469 27.082031 32.742188 32.472656 21.113281 45.726562 C 11.144531 57.078125 5.515625 70.945312 4.839844 85.820312 C 4.179688 100.316406 8.273438 115.527344 16.703125 129.84375 C 18.792969 133.359375 22.640625 135.558594 26.714844 135.511719 Z M 26.714844 135.511719 "/>
<path style=" stroke:none;fill-rule:nonzero;fill:rgb(97.254902%,66.666667%,0%);fill-opacity:1;" d="M 25.574219 98.089844 C 27.585938 133.046875 59.414062 159.589844 96.640625 157.417969 C 133.8125 155.261719 162.375 125.222656 160.390625 90.242188 C 158.3125 55.273438 126.550781 28.707031 89.34375 30.84375 C 52.109375 33.007812 23.566406 63.140625 25.574219 98.089844 Z M 25.574219 98.089844 "/>
<path style=" stroke:none;fill-rule:nonzero;fill:rgb(92.941176%,41.176471%,14.117647%);fill-opacity:1;" d="M 92.390625 158.484375 C 92.390625 158.484375 92.386719 158.484375 92.382812 158.484375 C 56.34375 158.484375 26.585938 131.980469 24.632812 98.144531 C 22.601562 62.710938 51.601562 32.09375 89.285156 29.902344 C 127.21875 27.738281 159.242188 54.992188 161.332031 90.1875 C 163.332031 125.59375 134.335938 156.175781 96.695312 158.363281 C 95.25 158.445312 93.816406 158.484375 92.390625 158.484375 Z M 93.523438 31.667969 C 92.15625 31.667969 90.78125 31.707031 89.398438 31.785156 C 52.742188 33.921875 24.535156 63.636719 26.515625 98.035156 C 28.402344 130.871094 57.339844 156.59375 92.382812 156.597656 C 92.386719 156.597656 92.390625 156.597656 92.390625 156.597656 C 93.785156 156.597656 95.179688 156.554688 96.585938 156.476562 C 133.195312 154.347656 161.394531 124.660156 159.453125 90.292969 C 157.496094 57.417969 128.535156 31.667969 93.523438 31.667969 Z M 93.523438 31.667969 "/>
<use xlink:href="#surface5" mask="url(#mask0)"/>
<use xlink:href="#surface8" mask="url(#mask1)"/>
<use xlink:href="#surface11" mask="url(#mask2)"/>
<use xlink:href="#surface14" mask="url(#mask3)"/>
<use xlink:href="#surface17" mask="url(#mask4)"/>
<use xlink:href="#surface20" mask="url(#mask5)"/>
<use xlink:href="#surface23" mask="url(#mask6)"/>
<use xlink:href="#surface26" mask="url(#mask7)"/>
<use xlink:href="#surface29" mask="url(#mask8)"/>
<use xlink:href="#surface32" mask="url(#mask9)"/>
<use xlink:href="#surface35" mask="url(#mask10)"/>
<use xlink:href="#surface38" mask="url(#mask11)"/>
<use xlink:href="#surface41" mask="url(#mask12)"/>
<use xlink:href="#surface44" mask="url(#mask13)"/>
<use xlink:href="#surface47" mask="url(#mask14)"/>
<use xlink:href="#surface50" mask="url(#mask15)"/>
<use xlink:href="#surface53" mask="url(#mask16)"/>
<use xlink:href="#surface56" mask="url(#mask17)"/>
<use xlink:href="#surface59" mask="url(#mask18)"/>
<use xlink:href="#surface62" mask="url(#mask19)"/>
<use xlink:href="#surface65" mask="url(#mask20)"/>
<use xlink:href="#surface68" mask="url(#mask21)"/>
<path style=" stroke:none;fill-rule:nonzero;fill:rgb(21.960784%,47.843137%,20.392157%);fill-opacity:1;" d="M 79.621094 36.105469 C 79.949219 37.589844 83.5625 38.175781 87.640625 37.53125 C 91.75 36.773438 94.789062 34.980469 94.4375 33.503906 C 94.097656 32.046875 90.5 31.40625 86.433594 32.105469 C 82.308594 32.8125 79.257812 34.613281 79.621094 36.105469 Z M 79.621094 36.105469 "/>
<path style=" stroke:none;fill-rule:nonzero;fill:rgb(30.588235%,65.098039%,28.627451%);fill-opacity:1;" d="M 79.253906 35.558594 C 79.582031 37.042969 83.191406 37.632812 87.273438 36.984375 C 91.382812 36.226562 94.414062 34.433594 94.070312 32.960938 C 93.730469 31.503906 90.121094 30.859375 86.058594 31.5625 C 81.933594 32.265625 78.886719 34.066406 79.253906 35.558594 Z M 79.253906 35.558594 "/>
<path style=" stroke:none;fill-rule:nonzero;fill:rgb(58.431373%,72.54902%,24.313725%);fill-opacity:1;" d="M 80.351562 35.304688 C 80.613281 36.5 83.515625 36.972656 86.796875 36.453125 C 90.101562 35.839844 92.546875 34.398438 92.265625 33.210938 C 91.992188 32.042969 89.09375 31.523438 85.828125 32.089844 C 82.507812 32.65625 80.054688 34.105469 80.351562 35.304688 Z M 80.351562 35.304688 "/>
<path style=" stroke:none;fill-rule:nonzero;fill:rgb(0%,51.764706%,21.960784%);fill-opacity:1;" d="M 83.613281 22.171875 C 84.210938 23.625 84.699219 25.0625 84.882812 26.640625 C 85.234375 29.710938 84.972656 32.148438 84.296875 34.652344 C 84.785156 35.515625 86.859375 35.226562 87.476562 34.808594 C 88.710938 33.953125 88.238281 32.15625 88.324219 30.714844 C 88.515625 27.292969 87.988281 23.824219 87.144531 20.523438 C 86.929688 19.683594 86.707031 18.851562 86.421875 18.042969 C 86.355469 17.847656 85.835938 16.25 85.636719 16.246094 C 83.21875 16.195312 81.699219 18.484375 82.785156 20.527344 C 83.109375 21.050781 83.390625 21.597656 83.613281 22.171875 Z M 83.613281 22.171875 "/>
<path style=" stroke:none;fill-rule:nonzero;fill:rgb(0%,29.411765%,22.352941%);fill-opacity:1;" d="M 85.738281 36.15625 C 84.660156 36.15625 83.855469 35.789062 83.476562 35.121094 C 83.355469 34.902344 83.320312 34.644531 83.390625 34.40625 C 84.09375 31.789062 84.261719 29.5 83.949219 26.746094 C 83.761719 25.15625 83.234375 23.722656 82.742188 22.535156 C 82.542969 22.019531 82.292969 21.515625 81.988281 21.019531 C 81.316406 19.765625 81.339844 18.371094 82.015625 17.234375 C 82.738281 16.023438 84.066406 15.304688 85.558594 15.304688 C 86.453125 15.320312 86.742188 16.066406 87.273438 17.621094 C 87.605469 18.5625 87.832031 19.425781 88.050781 20.289062 C 89.046875 24.167969 89.441406 27.59375 89.261719 30.765625 C 89.242188 31.09375 89.257812 31.441406 89.265625 31.789062 C 89.3125 33.058594 89.363281 34.648438 88.007812 35.585938 C 87.433594 35.980469 86.453125 36.15625 85.738281 36.15625 Z M 85.371094 34.246094 C 85.464844 34.257812 85.589844 34.269531 85.738281 34.269531 C 86.339844 34.269531 86.832031 34.101562 86.9375 34.03125 C 87.414062 33.699219 87.425781 32.988281 87.386719 31.851562 C 87.375 31.445312 87.359375 31.039062 87.382812 30.660156 C 87.554688 27.683594 87.175781 24.445312 86.234375 20.757812 C 86.027344 19.953125 85.8125 19.144531 85.539062 18.359375 C 85.34375 17.804688 85.21875 17.453125 85.132812 17.234375 C 84.464844 17.347656 83.933594 17.695312 83.625 18.207031 C 83.292969 18.777344 83.289062 19.457031 83.617188 20.082031 C 83.949219 20.617188 84.253906 21.222656 84.488281 21.828125 C 85.023438 23.121094 85.601562 24.710938 85.8125 26.53125 C 86.132812 29.261719 85.992188 31.671875 85.371094 34.246094 Z M 85.371094 34.246094 "/>
<path style=" stroke:none;fill-rule:nonzero;fill:rgb(0%,51.764706%,21.960784%);fill-opacity:1;" d="M 64.734375 34.8125 C 51.699219 38.183594 38.957031 42.972656 29.796875 53.414062 C 11.28125 74.5 13.511719 101.585938 26.644531 123.890625 C 29.820312 114.191406 38.527344 109.535156 45.449219 102.734375 C 51.707031 96.585938 58.320312 90.195312 62.875 82.609375 C 67.980469 74.101562 72.019531 65.113281 75.671875 55.890625 C 78.679688 48.292969 81.113281 40.066406 84.96875 32.746094 C 85.59375 30.386719 86.292969 28.050781 87.03125 25.734375 C 80.558594 30.511719 72.621094 32.773438 64.734375 34.8125 Z M 64.734375 34.8125 "/>
<path style=" stroke:none;fill-rule:nonzero;fill:rgb(0%,29.411765%,22.352941%);fill-opacity:1;" d="M 26.644531 124.832031 C 26.3125 124.832031 26.003906 124.65625 25.835938 124.371094 C 10.859375 98.925781 12.074219 72.167969 29.089844 52.789062 C 38.820312 41.703125 52.449219 37.019531 64.5 33.898438 C 72.527344 31.820312 80.25 29.574219 86.476562 24.972656 C 86.800781 24.726562 87.253906 24.726562 87.582031 24.960938 C 87.914062 25.203125 88.050781 25.628906 87.929688 26.019531 C 87.117188 28.542969 86.453125 30.820312 85.875 32.988281 C 83.191406 38.140625 81.207031 43.601562 79.292969 48.882812 C 78.390625 51.363281 77.496094 53.832031 76.542969 56.238281 C 72.242188 67.113281 68.152344 75.648438 63.679688 83.09375 C 59.21875 90.523438 52.886719 96.746094 46.757812 102.765625 L 46.109375 103.40625 C 44.191406 105.289062 42.125 107.023438 40.128906 108.699219 C 34.796875 113.167969 29.761719 117.390625 27.535156 124.183594 C 27.421875 124.535156 27.113281 124.785156 26.746094 124.828125 C 26.710938 124.828125 26.675781 124.832031 26.644531 124.832031 Z M 85.335938 28.027344 C 79.300781 31.8125 72.253906 33.839844 64.96875 35.726562 C 53.191406 38.773438 39.890625 43.332031 30.5 54.039062 C 14.433594 72.339844 12.972656 97.507812 26.46875 121.691406 C 29.125 115.464844 34.101562 111.292969 38.921875 107.246094 C 40.894531 105.597656 42.929688 103.890625 44.796875 102.054688 L 45.445312 101.417969 C 51.484375 95.480469 57.738281 89.34375 62.070312 82.121094 C 66.488281 74.761719 70.53125 66.320312 74.796875 55.539062 C 75.742188 53.152344 76.632812 50.699219 77.527344 48.234375 C 79.460938 42.894531 81.472656 37.371094 84.140625 32.304688 C 84.464844 31.003906 84.867188 29.574219 85.335938 28.027344 Z M 85.335938 28.027344 "/>
<use xlink:href="#surface71" mask="url(#mask22)"/>
<path style=" stroke:none;fill-rule:nonzero;fill:rgb(0%,51.764706%,21.960784%);fill-opacity:1;" d="M 70.46875 38.105469 C 60.746094 44.667969 50.820312 51.539062 42.9375 60.339844 C 27.125 77.996094 21.695312 99.726562 27.496094 121.859375 C 31.15625 113.539062 39.039062 109.03125 45.449219 102.734375 C 51.707031 96.582031 58.316406 90.195312 62.875 82.609375 C 67.980469 74.097656 72.019531 65.109375 75.671875 55.890625 C 78.679688 48.292969 81.113281 40.066406 84.96875 32.746094 C 85.519531 30.667969 86.144531 28.613281 86.78125 26.5625 C 82.296875 31.433594 75.949219 34.40625 70.46875 38.105469 Z M 70.46875 38.105469 "/>
<path style=" stroke:none;fill-rule:nonzero;fill:rgb(0%,29.411765%,22.352941%);fill-opacity:1;" d="M 27.496094 122.804688 C 27.46875 122.804688 27.449219 122.804688 27.421875 122.800781 C 27.023438 122.769531 26.6875 122.488281 26.585938 122.097656 C 20.71875 99.695312 26.273438 77.535156 42.242188 59.703125 C 49.960938 51.089844 59.351562 44.472656 69.941406 37.324219 C 71.558594 36.230469 73.253906 35.199219 74.949219 34.167969 C 78.910156 31.757812 83.007812 29.265625 86.09375 25.921875 C 86.398438 25.59375 86.875 25.515625 87.253906 25.746094 C 87.636719 25.964844 87.8125 26.417969 87.679688 26.839844 C 87.046875 28.882812 86.425781 30.921875 85.878906 32.988281 C 83.191406 38.140625 81.210938 43.601562 79.292969 48.882812 C 78.394531 51.363281 77.5 53.832031 76.542969 56.238281 C 72.242188 67.113281 68.152344 75.648438 63.679688 83.09375 C 59.21875 90.523438 52.886719 96.746094 46.757812 102.765625 L 46.109375 103.40625 C 44.21875 105.265625 42.183594 106.984375 40.21875 108.640625 C 35.40625 112.707031 30.863281 116.542969 28.355469 122.242188 C 28.207031 122.585938 27.867188 122.804688 27.496094 122.804688 Z M 84.847656 29.707031 C 82.097656 32.03125 78.976562 33.929688 75.925781 35.789062 C 74.25 36.800781 72.585938 37.816406 70.996094 38.890625 C 60.511719 45.964844 51.210938 52.511719 43.636719 60.964844 C 28.695312 77.65625 23.121094 98.234375 27.808594 119.164062 C 30.613281 114.285156 34.875 110.6875 39.011719 107.195312 C 40.945312 105.558594 42.953125 103.867188 44.796875 102.054688 L 45.445312 101.417969 C 51.484375 95.480469 57.738281 89.34375 62.070312 82.121094 C 66.488281 74.761719 70.53125 66.320312 74.796875 55.539062 C 75.742188 53.152344 76.632812 50.699219 77.527344 48.234375 C 79.460938 42.894531 81.46875 37.371094 84.136719 32.304688 C 84.347656 31.464844 84.589844 30.59375 84.847656 29.707031 Z M 84.847656 29.707031 "/>
<use xlink:href="#surface74" mask="url(#mask23)"/>
<path style=" stroke:none;fill-rule:nonzero;fill:rgb(0%,51.764706%,21.960784%);fill-opacity:1;" d="M 30.375 59.605469 C 32.566406 56.445312 35.054688 53.496094 37.8125 50.789062 C 39.359375 49.046875 40.910156 47.332031 42.414062 45.628906 C 30.085938 53.816406 22.117188 65.53125 20.09375 80.152344 C 21.570312 72.535156 25.5625 65.835938 30.375 59.605469 Z M 30.375 59.605469 "/>
<path style=" stroke:none;fill-rule:nonzero;fill:rgb(0%,51.764706%,21.960784%);fill-opacity:1;" d="M 41.097656 71.003906 C 33.957031 79.835938 29.871094 90.648438 28.597656 101.929688 C 29.296875 97.894531 30.277344 93.914062 31.675781 90.042969 C 34.125 83.316406 37.855469 77.316406 41.097656 71.003906 Z M 41.097656 71.003906 "/>
<use xlink:href="#surface77" mask="url(#mask24)"/>
</g>
</svg>
